<?xml version="1.0" encoding="UTF-8" standalone="no"?>
<!DOCTYPE svg PUBLIC "-//W3C//DTD SVG 1.1//EN"
 "http://www.w3.org/Graphics/SVG/1.1/DTD/svg11.dtd">
<!-- Generated by graphviz version 2.26.3 (20100126.1600)
 -->
<!-- Title: controllers_diagram Pages: 1 -->
<svg width="743pt" height="745pt"
 viewBox="0.00 0.00 743.00 745.00" xmlns="http://www.w3.org/2000/svg" xmlns:xlink="http://www.w3.org/1999/xlink">
<g id="graph1" class="graph" transform="scale(1 1) rotate(0) translate(4 741)">
<title>controllers_diagram</title>
<polygon fill="white" stroke="white" points="-4,5 -4,-741 740,-741 740,5 -4,5"/>
<!-- _diagram_info -->
<g id="node1" class="node"><title>_diagram_info</title>
<text text-anchor="start" x="492" y="-303.3" font-family="Times Roman,serif" font-size="13.00">Controllers diagram</text>
<text text-anchor="start" x="492" y="-287.3" font-family="Times Roman,serif" font-size="13.00">Date: Jun 14 2015 &#45; 14:26</text>
<text text-anchor="start" x="492" y="-271.3" font-family="Times Roman,serif" font-size="13.00">Migration version: 20150607144430</text>
<text text-anchor="start" x="492" y="-255.3" font-family="Times Roman,serif" font-size="13.00">Generated by RailRoady 1.3.0</text>
<text text-anchor="start" x="492" y="-239.3" font-family="Times Roman,serif" font-size="13.00">http://railroady.prestonlee.com</text>
</g>
<!-- TripsController -->
<g id="node2" class="node"><title>TripsController</title>
<polyline fill="none" stroke="black" points="450,-415.5 570,-415.5 "/>
<path fill="none" stroke="black" d="M570,-415.5C576,-415.5 582,-421.5 582,-427.5"/>
<polyline fill="none" stroke="black" points="582,-427.5 582,-723.5 "/>
<path fill="none" stroke="black" d="M582,-723.5C582,-729.5 576,-735.5 570,-735.5"/>
<polyline fill="none" stroke="black" points="570,-735.5 450,-735.5 "/>
<path fill="none" stroke="black" d="M450,-735.5C444,-735.5 438,-729.5 438,-723.5"/>
<polyline fill="none" stroke="black" points="438,-723.5 438,-427.5 "/>
<path fill="none" stroke="black" d="M438,-427.5C438,-421.5 444,-415.5 450,-415.5"/>
<text text-anchor="middle" x="510" y="-718.9" font-family="Times Roman,serif" font-size="14.00">TripsController</text>
<polyline fill="none" stroke="black" points="438,-710.5 582,-710.5 "/>
<text text-anchor="start" x="446" y="-693.9" font-family="Times Roman,serif" font-size="14.00">check_car_params</text>
<text text-anchor="start" x="446" y="-676.9" font-family="Times Roman,serif" font-size="14.00">create</text>
<text text-anchor="start" x="446" y="-659.9" font-family="Times Roman,serif" font-size="14.00">dashboard</text>
<text text-anchor="start" x="446" y="-642.9" font-family="Times Roman,serif" font-size="14.00">economic_ranges</text>
<text text-anchor="start" x="446" y="-625.9" font-family="Times Roman,serif" font-size="14.00">fill_and_save</text>
<text text-anchor="start" x="446" y="-608.9" font-family="Times Roman,serif" font-size="14.00">fill_user_data</text>
<text text-anchor="start" x="446" y="-591.9" font-family="Times Roman,serif" font-size="14.00">find_starat_finish</text>
<text text-anchor="start" x="446" y="-574.9" font-family="Times Roman,serif" font-size="14.00">geocoder_wrapper</text>
<text text-anchor="start" x="446" y="-557.9" font-family="Times Roman,serif" font-size="14.00">index</text>
<text text-anchor="start" x="446" y="-540.9" font-family="Times Roman,serif" font-size="14.00">mytrips</text>
<text text-anchor="start" x="446" y="-523.9" font-family="Times Roman,serif" font-size="14.00">point_to_string</text>
<text text-anchor="start" x="446" y="-506.9" font-family="Times Roman,serif" font-size="14.00">ranking</text>
<text text-anchor="start" x="446" y="-489.9" font-family="Times Roman,serif" font-size="14.00">show</text>
<text text-anchor="start" x="446" y="-472.9" font-family="Times Roman,serif" font-size="14.00">who_am_i</text>
<polyline fill="none" stroke="black" points="438,-464.5 582,-464.5 "/>
<polyline fill="none" stroke="black" points="438,-440.5 582,-440.5 "/>
<text text-anchor="start" x="446" y="-423.9" font-family="Times Roman,serif" font-size="14.00">_layout</text>
</g>
<!-- ApplicationController -->
<g id="node3" class="node"><title>ApplicationController</title>
<polyline fill="none" stroke="black" points="128,-162.5 433,-162.5 "/>
<path fill="none" stroke="black" d="M433,-162.5C439,-162.5 445,-168.5 445,-174.5"/>
<polyline fill="none" stroke="black" points="445,-174.5 445,-352.5 "/>
<path fill="none" stroke="black" d="M445,-352.5C445,-358.5 439,-364.5 433,-364.5"/>
<polyline fill="none" stroke="black" points="433,-364.5 128,-364.5 "/>
<path fill="none" stroke="black" d="M128,-364.5C122,-364.5 116,-358.5 116,-352.5"/>
<polyline fill="none" stroke="black" points="116,-352.5 116,-174.5 "/>
<path fill="none" stroke="black" d="M116,-174.5C116,-168.5 122,-162.5 128,-162.5"/>
<text text-anchor="middle" x="280.5" y="-347.9" font-family="Times Roman,serif" font-size="14.00">ApplicationController</text>
<polyline fill="none" stroke="black" points="116,-339.5 445,-339.5 "/>
<text text-anchor="start" x="124" y="-322.9" font-family="Times Roman,serif" font-size="14.00">after_sign_in_path_for</text>
<text text-anchor="start" x="124" y="-305.9" font-family="Times Roman,serif" font-size="14.00">after_sign_out_path_for</text>
<text text-anchor="start" x="124" y="-288.9" font-family="Times Roman,serif" font-size="14.00">after_sign_up_path_for</text>
<polyline fill="none" stroke="black" points="116,-280.5 445,-280.5 "/>
<text text-anchor="start" x="124" y="-263.9" font-family="Times Roman,serif" font-size="14.00">configure_permitted_parameters</text>
<text text-anchor="start" x="124" y="-246.9" font-family="Times Roman,serif" font-size="14.00">layout_by_resource</text>
<text text-anchor="start" x="124" y="-229.9" font-family="Times Roman,serif" font-size="14.00">set_locale</text>
<polyline fill="none" stroke="black" points="116,-221.5 445,-221.5 "/>
<text text-anchor="start" x="124" y="-204.9" font-family="Times Roman,serif" font-size="14.00">_layout</text>
<text text-anchor="start" x="124" y="-187.9" font-family="Times Roman,serif" font-size="14.00">default_url_options</text>
<text text-anchor="start" x="124" y="-170.9" font-family="Times Roman,serif" font-size="14.00">extract_locale_from_accept_language_header</text>
</g>
<!-- Android::UsersController -->
<g id="node4" class="node"><title>Android::UsersController</title>
<polyline fill="none" stroke="black" points="13,-576.5 175,-576.5 "/>
<path fill="none" stroke="black" d="M175,-576.5C181,-576.5 187,-582.5 187,-588.5"/>
<polyline fill="none" stroke="black" points="187,-588.5 187,-697.5 "/>
<path fill="none" stroke="black" d="M187,-697.5C187,-703.5 181,-709.5 175,-709.5"/>
<polyline fill="none" stroke="black" points="175,-709.5 13,-709.5 "/>
<path fill="none" stroke="black" d="M13,-709.5C7,-709.5 1,-703.5 1,-697.5"/>
<polyline fill="none" stroke="black" points="1,-697.5 1,-588.5 "/>
<path fill="none" stroke="black" d="M1,-588.5C1,-582.5 7,-576.5 13,-576.5"/>
<text text-anchor="middle" x="94" y="-692.9" font-family="Times Roman,serif" font-size="14.00">Android::UsersController</text>
<polyline fill="none" stroke="black" points="1,-684.5 187,-684.5 "/>
<text text-anchor="start" x="9" y="-667.9" font-family="Times Roman,serif" font-size="14.00">engine_params</text>
<text text-anchor="start" x="9" y="-650.9" font-family="Times Roman,serif" font-size="14.00">gear_params</text>
<text text-anchor="start" x="9" y="-633.9" font-family="Times Roman,serif" font-size="14.00">update_car_type</text>
<polyline fill="none" stroke="black" points="1,-625.5 187,-625.5 "/>
<polyline fill="none" stroke="black" points="1,-601.5 187,-601.5 "/>
<text text-anchor="start" x="9" y="-584.9" font-family="Times Roman,serif" font-size="14.00">_layout</text>
</g>
<!-- Android::RegistrationsController -->
<g id="node5" class="node"><title>Android::RegistrationsController</title>
<polyline fill="none" stroke="black" points="496,-93.5 710,-93.5 "/>
<path fill="none" stroke="black" d="M710,-93.5C716,-93.5 722,-99.5 722,-105.5"/>
<polyline fill="none" stroke="black" points="722,-105.5 722,-180.5 "/>
<path fill="none" stroke="black" d="M722,-180.5C722,-186.5 716,-192.5 710,-192.5"/>
<polyline fill="none" stroke="black" points="710,-192.5 496,-192.5 "/>
<path fill="none" stroke="black" d="M496,-192.5C490,-192.5 484,-186.5 484,-180.5"/>
<polyline fill="none" stroke="black" points="484,-180.5 484,-105.5 "/>
<path fill="none" stroke="black" d="M484,-105.5C484,-99.5 490,-93.5 496,-93.5"/>
<text text-anchor="middle" x="603" y="-175.9" font-family="Times Roman,serif" font-size="14.00">Android::RegistrationsController</text>
<polyline fill="none" stroke="black" points="484,-167.5 722,-167.5 "/>
<text text-anchor="start" x="492" y="-150.9" font-family="Times Roman,serif" font-size="14.00">create</text>
<polyline fill="none" stroke="black" points="484,-142.5 722,-142.5 "/>
<polyline fill="none" stroke="black" points="484,-118.5 722,-118.5 "/>
<text text-anchor="start" x="492" y="-101.9" font-family="Times Roman,serif" font-size="14.00">_layout</text>
</g>
<!-- Android::SessionsController -->
<g id="node6" class="node"><title>Android::SessionsController</title>
<polyline fill="none" stroke="black" points="36,-1.5 218,-1.5 "/>
<path fill="none" stroke="black" d="M218,-1.5C224,-1.5 230,-7.5 230,-13.5"/>
<polyline fill="none" stroke="black" points="230,-13.5 230,-105.5 "/>
<path fill="none" stroke="black" d="M230,-105.5C230,-111.5 224,-117.5 218,-117.5"/>
<polyline fill="none" stroke="black" points="218,-117.5 36,-117.5 "/>
<path fill="none" stroke="black" d="M36,-117.5C30,-117.5 24,-111.5 24,-105.5"/>
<polyline fill="none" stroke="black" points="24,-105.5 24,-13.5 "/>
<path fill="none" stroke="black" d="M24,-13.5C24,-7.5 30,-1.5 36,-1.5"/>
<text text-anchor="middle" x="127" y="-100.9" font-family="Times Roman,serif" font-size="14.00">Android::SessionsController</text>
<polyline fill="none" stroke="black" points="24,-92.5 230,-92.5 "/>
<text text-anchor="start" x="32" y="-75.9" font-family="Times Roman,serif" font-size="14.00">create</text>
<text text-anchor="start" x="32" y="-58.9" font-family="Times Roman,serif" font-size="14.00">destroy</text>
<polyline fill="none" stroke="black" points="24,-50.5 230,-50.5 "/>
<polyline fill="none" stroke="black" points="24,-26.5 230,-26.5 "/>
<text text-anchor="start" x="32" y="-9.9" font-family="Times Roman,serif" font-size="14.00">_layout</text>
</g>
<!-- ChallengesController -->
<g id="node7" class="node"><title>ChallengesController</title>
<polyline fill="none" stroke="black" points="243,-415.5 380,-415.5 "/>
<path fill="none" stroke="black" d="M380,-415.5C386,-415.5 392,-421.5 392,-427.5"/>
<polyline fill="none" stroke="black" points="392,-427.5 392,-689.5 "/>
<path fill="none" stroke="black" d="M392,-689.5C392,-695.5 386,-701.5 380,-701.5"/>
<polyline fill="none" stroke="black" points="380,-701.5 243,-701.5 "/>
<path fill="none" stroke="black" d="M243,-701.5C237,-701.5 231,-695.5 231,-689.5"/>
<polyline fill="none" stroke="black" points="231,-689.5 231,-427.5 "/>
<path fill="none" stroke="black" d="M231,-427.5C231,-421.5 237,-415.5 243,-415.5"/>
<text text-anchor="middle" x="311.5" y="-684.9" font-family="Times Roman,serif" font-size="14.00">ChallengesController</text>
<polyline fill="none" stroke="black" points="231,-676.5 392,-676.5 "/>
<text text-anchor="start" x="239" y="-659.9" font-family="Times Roman,serif" font-size="14.00">accept_invitation</text>
<text text-anchor="start" x="239" y="-642.9" font-family="Times Roman,serif" font-size="14.00">all</text>
<text text-anchor="start" x="239" y="-625.9" font-family="Times Roman,serif" font-size="14.00">all_challenge_trips</text>
<text text-anchor="start" x="239" y="-608.9" font-family="Times Roman,serif" font-size="14.00">all_invitations</text>
<text text-anchor="start" x="239" y="-591.9" font-family="Times Roman,serif" font-size="14.00">all_users</text>
<text text-anchor="start" x="239" y="-574.9" font-family="Times Roman,serif" font-size="14.00">check_conditions</text>
<text text-anchor="start" x="239" y="-557.9" font-family="Times Roman,serif" font-size="14.00">create</text>
<text text-anchor="start" x="239" y="-540.9" font-family="Times Roman,serif" font-size="14.00">invite_user</text>
<text text-anchor="start" x="239" y="-523.9" font-family="Times Roman,serif" font-size="14.00">join</text>
<text text-anchor="start" x="239" y="-506.9" font-family="Times Roman,serif" font-size="14.00">prepare_condition</text>
<text text-anchor="start" x="239" y="-489.9" font-family="Times Roman,serif" font-size="14.00">reject_invitation</text>
<text text-anchor="start" x="239" y="-472.9" font-family="Times Roman,serif" font-size="14.00">show_path</text>
<polyline fill="none" stroke="black" points="231,-464.5 392,-464.5 "/>
<polyline fill="none" stroke="black" points="231,-440.5 392,-440.5 "/>
<text text-anchor="start" x="239" y="-423.9" font-family="Times Roman,serif" font-size="14.00">_layout</text>
</g>
</g>
</svg>
