<?xml version="1.0" encoding="UTF-8" standalone="no"?>
<!DOCTYPE svg PUBLIC "-//W3C//DTD SVG 1.1//EN"
 "http://www.w3.org/Graphics/SVG/1.1/DTD/svg11.dtd">
<!-- Generated by graphviz version 2.26.3 (20100126.1600)
 -->
<!-- Title: models_diagram Pages: 1 -->
<svg width="958pt" height="1076pt"
 viewBox="0.00 0.00 958.00 1076.00" xmlns="http://www.w3.org/2000/svg" xmlns:xlink="http://www.w3.org/1999/xlink">
<g id="graph1" class="graph" transform="scale(1 1) rotate(0) translate(4 1072)">
<title>models_diagram</title>
<polygon fill="white" stroke="white" points="-4,5 -4,-1072 955,-1072 955,5 -4,5"/>
<!-- _diagram_info -->
<g id="node1" class="node"><title>_diagram_info</title>
<text text-anchor="start" x="233" y="-943.3" font-family="Times Roman,serif" font-size="13.00">Models diagram</text>
<text text-anchor="start" x="233" y="-927.3" font-family="Times Roman,serif" font-size="13.00">Date: Jun 14 2015 &#45; 14:26</text>
<text text-anchor="start" x="233" y="-911.3" font-family="Times Roman,serif" font-size="13.00">Migration version: 20150607144430</text>
<text text-anchor="start" x="233" y="-895.3" font-family="Times Roman,serif" font-size="13.00">Generated by RailRoady 1.3.0</text>
<text text-anchor="start" x="233" y="-879.3" font-family="Times Roman,serif" font-size="13.00">http://railroady.prestonlee.com</text>
</g>
<!-- EngineType -->
<g id="node2" class="node"><title>EngineType</title>
<polyline fill="none" stroke="black" points="341.5,-588 484.5,-588 "/>
<path fill="none" stroke="black" d="M484.5,-588C490.5,-588 496.5,-594 496.5,-600"/>
<polyline fill="none" stroke="black" points="496.5,-600 496.5,-694 "/>
<path fill="none" stroke="black" d="M496.5,-694C496.5,-700 490.5,-706 484.5,-706"/>
<polyline fill="none" stroke="black" points="484.5,-706 341.5,-706 "/>
<path fill="none" stroke="black" d="M341.5,-706C335.5,-706 329.5,-700 329.5,-694"/>
<polyline fill="none" stroke="black" points="329.5,-694 329.5,-600 "/>
<path fill="none" stroke="black" d="M329.5,-600C329.5,-594 335.5,-588 341.5,-588"/>
<text text-anchor="middle" x="413" y="-689.4" font-family="Times Roman,serif" font-size="14.00">EngineType</text>
<polyline fill="none" stroke="black" points="329.5,-681 496.5,-681 "/>
<text text-anchor="start" x="337.5" y="-664.4" font-family="Times Roman,serif" font-size="14.00">id :integer</text>
<text text-anchor="start" x="337.5" y="-647.4" font-family="Times Roman,serif" font-size="14.00">eng_type :string</text>
<text text-anchor="start" x="337.5" y="-630.4" font-family="Times Roman,serif" font-size="14.00">gear_up_min :integer</text>
<text text-anchor="start" x="337.5" y="-613.4" font-family="Times Roman,serif" font-size="14.00">gear_up_max :integer</text>
<text text-anchor="start" x="337.5" y="-596.4" font-family="Times Roman,serif" font-size="14.00">gear_down :integer</text>
</g>
<!-- FuelConsumption -->
<g id="node3" class="node"><title>FuelConsumption</title>
<polyline fill="none" stroke="black" points="11.5,-312 226.5,-312 "/>
<path fill="none" stroke="black" d="M226.5,-312C232.5,-312 238.5,-318 238.5,-324"/>
<polyline fill="none" stroke="black" points="238.5,-324 238.5,-452 "/>
<path fill="none" stroke="black" d="M238.5,-452C238.5,-458 232.5,-464 226.5,-464"/>
<polyline fill="none" stroke="black" points="226.5,-464 11.5,-464 "/>
<path fill="none" stroke="black" d="M11.5,-464C5.5,-464 -0.5,-458 -0.5,-452"/>
<polyline fill="none" stroke="black" points="-0.5,-452 -0.5,-324 "/>
<path fill="none" stroke="black" d="M-0.5,-324C-0.5,-318 5.5,-312 11.5,-312"/>
<text text-anchor="middle" x="119" y="-447.4" font-family="Times Roman,serif" font-size="14.00">FuelConsumption</text>
<polyline fill="none" stroke="black" points="-0.5,-439 238.5,-439 "/>
<text text-anchor="start" x="7.5" y="-422.4" font-family="Times Roman,serif" font-size="14.00">id :integer</text>
<text text-anchor="start" x="7.5" y="-405.4" font-family="Times Roman,serif" font-size="14.00">engine_displacement_id :integer</text>
<text text-anchor="start" x="7.5" y="-388.4" font-family="Times Roman,serif" font-size="14.00">engine_type_id :integer</text>
<text text-anchor="start" x="7.5" y="-371.4" font-family="Times Roman,serif" font-size="14.00">low :float</text>
<text text-anchor="start" x="7.5" y="-354.4" font-family="Times Roman,serif" font-size="14.00">high :float</text>
<text text-anchor="start" x="7.5" y="-337.4" font-family="Times Roman,serif" font-size="14.00">created_at :datetime</text>
<text text-anchor="start" x="7.5" y="-320.4" font-family="Times Roman,serif" font-size="14.00">updated_at :datetime</text>
</g>
<!-- EngineType&#45;&gt;FuelConsumption -->
<g id="edge6" class="edge"><title>EngineType&#45;&gt;FuelConsumption</title>
<path fill="none" stroke="#f1ee10" d="M350.83,-582.161C332.325,-565.078 311.279,-547.632 290,-534 272.555,-522.824 264.205,-527.543 247,-516 228.103,-503.322 209.655,-487.575 192.914,-471.51"/>
<ellipse fill="none" stroke="#f1ee10" cx="354.083" cy="-585.203" rx="4.00002" ry="4.00002"/>
<polygon fill="#f1ee10" stroke="#f1ee10" points="192.5,-471.105 188.492,-460.898 188.923,-467.611 185.347,-464.116 185.347,-464.116 185.347,-464.116 188.923,-467.611 182.202,-467.335 192.5,-471.105 192.5,-471.105"/>
</g>
<!-- Trip -->
<g id="node7" class="node"><title>Trip</title>
<polyline fill="none" stroke="black" points="361.5,-261 576.5,-261 "/>
<path fill="none" stroke="black" d="M576.5,-261C582.5,-261 588.5,-267 588.5,-273"/>
<polyline fill="none" stroke="black" points="588.5,-273 588.5,-503 "/>
<path fill="none" stroke="black" d="M588.5,-503C588.5,-509 582.5,-515 576.5,-515"/>
<polyline fill="none" stroke="black" points="576.5,-515 361.5,-515 "/>
<path fill="none" stroke="black" d="M361.5,-515C355.5,-515 349.5,-509 349.5,-503"/>
<polyline fill="none" stroke="black" points="349.5,-503 349.5,-273 "/>
<path fill="none" stroke="black" d="M349.5,-273C349.5,-267 355.5,-261 361.5,-261"/>
<text text-anchor="middle" x="469" y="-498.4" font-family="Times Roman,serif" font-size="14.00">Trip</text>
<polyline fill="none" stroke="black" points="349.5,-490 588.5,-490 "/>
<text text-anchor="start" x="357.5" y="-473.4" font-family="Times Roman,serif" font-size="14.00">id :integer</text>
<text text-anchor="start" x="357.5" y="-456.4" font-family="Times Roman,serif" font-size="14.00">distance :float</text>
<text text-anchor="start" x="357.5" y="-439.4" font-family="Times Roman,serif" font-size="14.00">avg_rpm :float</text>
<text text-anchor="start" x="357.5" y="-422.4" font-family="Times Roman,serif" font-size="14.00">avg_fuel :float</text>
<text text-anchor="start" x="357.5" y="-405.4" font-family="Times Roman,serif" font-size="14.00">date :datetime</text>
<text text-anchor="start" x="357.5" y="-388.4" font-family="Times Roman,serif" font-size="14.00">user_id :integer</text>
<text text-anchor="start" x="357.5" y="-371.4" font-family="Times Roman,serif" font-size="14.00">avg_speed :integer</text>
<text text-anchor="start" x="357.5" y="-354.4" font-family="Times Roman,serif" font-size="14.00">beginning :string</text>
<text text-anchor="start" x="357.5" y="-337.4" font-family="Times Roman,serif" font-size="14.00">finish :string</text>
<text text-anchor="start" x="357.5" y="-320.4" font-family="Times Roman,serif" font-size="14.00">challenge_id :integer</text>
<text text-anchor="start" x="357.5" y="-303.4" font-family="Times Roman,serif" font-size="14.00">engine_type_id :integer</text>
<text text-anchor="start" x="357.5" y="-286.4" font-family="Times Roman,serif" font-size="14.00">engine_displacement_id :integer</text>
<text text-anchor="start" x="357.5" y="-269.4" font-family="Times Roman,serif" font-size="14.00">mark :decimal</text>
</g>
<!-- EngineType&#45;&gt;Trip -->
<g id="edge4" class="edge"><title>EngineType&#45;&gt;Trip</title>
<path fill="none" stroke="#32dd35" d="M437.192,-580.122C440.092,-570.755 442.799,-561.19 445,-552 447.092,-543.266 449.031,-534.224 450.822,-525.079"/>
<ellipse fill="none" stroke="#32dd35" cx="435.927" cy="-584.119" rx="4.00001" ry="4.00001"/>
<polygon fill="#32dd35" stroke="#32dd35" points="450.847,-524.95 457.13,-515.963 451.778,-520.037 452.709,-515.125 452.709,-515.125 452.709,-515.125 451.778,-520.037 448.288,-514.287 450.847,-524.95 450.847,-524.95"/>
</g>
<!-- Users -->
<g id="node12" class="node"><title>Users</title>
<ellipse fill="none" stroke="black" cx="294" cy="-388" rx="38.2185" ry="18"/>
<text text-anchor="middle" x="294" y="-383.9" font-family="Times Roman,serif" font-size="14.00">Users</text>
</g>
<!-- EngineType&#45;&gt;Users -->
<g id="edge2" class="edge"><title>EngineType&#45;&gt;Users</title>
<path fill="none" stroke="#9d05f4" d="M374.111,-580.84C362.775,-560.381 350.811,-537.551 341,-516 325.266,-481.44 310.797,-439.936 302.185,-413.758"/>
<ellipse fill="none" stroke="#9d05f4" cx="376.141" cy="-584.479" rx="4.00002" ry="4.00002"/>
<ellipse fill="#9d05f4" stroke="#9d05f4" cx="300.945" cy="-409.953" rx="4.00001" ry="4.00001"/>
<text text-anchor="middle" x="375.5" y="-538.9" font-family="Times Roman,serif" font-size="14.00">users</text>
</g>
<!-- User -->
<g id="node4" class="node"><title>User</title>
<polyline fill="none" stroke="black" points="505,-762.5 735,-762.5 "/>
<path fill="none" stroke="black" d="M735,-762.5C741,-762.5 747,-768.5 747,-774.5"/>
<polyline fill="none" stroke="black" points="747,-774.5 747,-1055.5 "/>
<path fill="none" stroke="black" d="M747,-1055.5C747,-1061.5 741,-1067.5 735,-1067.5"/>
<polyline fill="none" stroke="black" points="735,-1067.5 505,-1067.5 "/>
<path fill="none" stroke="black" d="M505,-1067.5C499,-1067.5 493,-1061.5 493,-1055.5"/>
<polyline fill="none" stroke="black" points="493,-1055.5 493,-774.5 "/>
<path fill="none" stroke="black" d="M493,-774.5C493,-768.5 499,-762.5 505,-762.5"/>
<text text-anchor="middle" x="620" y="-1050.9" font-family="Times Roman,serif" font-size="14.00">User</text>
<polyline fill="none" stroke="black" points="493,-1042.5 747,-1042.5 "/>
<text text-anchor="start" x="501" y="-1025.9" font-family="Times Roman,serif" font-size="14.00">id :integer</text>
<text text-anchor="start" x="501" y="-1008.9" font-family="Times Roman,serif" font-size="14.00">email :string</text>
<text text-anchor="start" x="501" y="-991.9" font-family="Times Roman,serif" font-size="14.00">encrypted_password :string</text>
<text text-anchor="start" x="501" y="-974.9" font-family="Times Roman,serif" font-size="14.00">reset_password_token :string</text>
<text text-anchor="start" x="501" y="-957.9" font-family="Times Roman,serif" font-size="14.00">reset_password_sent_at :datetime</text>
<text text-anchor="start" x="501" y="-940.9" font-family="Times Roman,serif" font-size="14.00">remember_created_at :datetime</text>
<text text-anchor="start" x="501" y="-923.9" font-family="Times Roman,serif" font-size="14.00">sign_in_count :integer</text>
<text text-anchor="start" x="501" y="-906.9" font-family="Times Roman,serif" font-size="14.00">current_sign_in_at :datetime</text>
<text text-anchor="start" x="501" y="-889.9" font-family="Times Roman,serif" font-size="14.00">last_sign_in_at :datetime</text>
<text text-anchor="start" x="501" y="-872.9" font-family="Times Roman,serif" font-size="14.00">current_sign_in_ip :string</text>
<text text-anchor="start" x="501" y="-855.9" font-family="Times Roman,serif" font-size="14.00">last_sign_in_ip :string</text>
<text text-anchor="start" x="501" y="-838.9" font-family="Times Roman,serif" font-size="14.00">created_at :datetime</text>
<text text-anchor="start" x="501" y="-821.9" font-family="Times Roman,serif" font-size="14.00">updated_at :datetime</text>
<text text-anchor="start" x="501" y="-804.9" font-family="Times Roman,serif" font-size="14.00">username :string</text>
<text text-anchor="start" x="501" y="-787.9" font-family="Times Roman,serif" font-size="14.00">engine_type_id :integer</text>
<text text-anchor="start" x="501" y="-770.9" font-family="Times Roman,serif" font-size="14.00">engine_displacement_id :integer</text>
</g>
<!-- ChallengesUser -->
<g id="node5" class="node"><title>ChallengesUser</title>
<polyline fill="none" stroke="black" points="802,-354.5 938,-354.5 "/>
<path fill="none" stroke="black" d="M938,-354.5C944,-354.5 950,-360.5 950,-366.5"/>
<polyline fill="none" stroke="black" points="950,-366.5 950,-409.5 "/>
<path fill="none" stroke="black" d="M950,-409.5C950,-415.5 944,-421.5 938,-421.5"/>
<polyline fill="none" stroke="black" points="938,-421.5 802,-421.5 "/>
<path fill="none" stroke="black" d="M802,-421.5C796,-421.5 790,-415.5 790,-409.5"/>
<polyline fill="none" stroke="black" points="790,-409.5 790,-366.5 "/>
<path fill="none" stroke="black" d="M790,-366.5C790,-360.5 796,-354.5 802,-354.5"/>
<text text-anchor="middle" x="870" y="-404.9" font-family="Times Roman,serif" font-size="14.00">ChallengesUser</text>
<polyline fill="none" stroke="black" points="790,-396.5 950,-396.5 "/>
<text text-anchor="start" x="798" y="-379.9" font-family="Times Roman,serif" font-size="14.00">user_id :integer</text>
<text text-anchor="start" x="798" y="-362.9" font-family="Times Roman,serif" font-size="14.00">challenge_id :integer</text>
</g>
<!-- User&#45;&gt;ChallengesUser -->
<g id="edge10" class="edge"><title>User&#45;&gt;ChallengesUser</title>
<path fill="none" stroke="#a21665" d="M751.983,-779.108C765.096,-761.427 777.166,-742.874 787,-724 837.468,-627.136 858.113,-498.424 865.842,-431.93"/>
<ellipse fill="none" stroke="#a21665" cx="749.514" cy="-782.387" rx="4.00002" ry="4.00002"/>
<polygon fill="#a21665" stroke="#a21665" points="865.862,-431.744 871.446,-422.307 866.418,-426.775 866.974,-421.806 866.974,-421.806 866.974,-421.806 866.418,-426.775 862.502,-421.306 865.862,-431.744 865.862,-431.744"/>
</g>
<!-- User&#45;&gt;Trip -->
<g id="edge8" class="edge"><title>User&#45;&gt;Trip</title>
<path fill="none" stroke="#9b3bee" d="M573.97,-754.353C552.953,-681 528.321,-595.034 508.202,-524.817"/>
<ellipse fill="none" stroke="#9b3bee" cx="575.121" cy="-758.371" rx="4.00001" ry="4.00001"/>
<polygon fill="#9b3bee" stroke="#9b3bee" points="508.148,-524.63 509.72,-513.777 506.771,-519.824 505.394,-515.017 505.394,-515.017 505.394,-515.017 506.771,-519.824 501.068,-516.256 508.148,-524.63 508.148,-524.63"/>
</g>
<!-- Invitation -->
<g id="node9" class="node"><title>Invitation</title>
<polyline fill="none" stroke="black" points="618,-320.5 760,-320.5 "/>
<path fill="none" stroke="black" d="M760,-320.5C766,-320.5 772,-326.5 772,-332.5"/>
<polyline fill="none" stroke="black" points="772,-332.5 772,-443.5 "/>
<path fill="none" stroke="black" d="M772,-443.5C772,-449.5 766,-455.5 760,-455.5"/>
<polyline fill="none" stroke="black" points="760,-455.5 618,-455.5 "/>
<path fill="none" stroke="black" d="M618,-455.5C612,-455.5 606,-449.5 606,-443.5"/>
<polyline fill="none" stroke="black" points="606,-443.5 606,-332.5 "/>
<path fill="none" stroke="black" d="M606,-332.5C606,-326.5 612,-320.5 618,-320.5"/>
<text text-anchor="middle" x="689" y="-438.9" font-family="Times Roman,serif" font-size="14.00">Invitation</text>
<polyline fill="none" stroke="black" points="606,-430.5 772,-430.5 "/>
<text text-anchor="start" x="614" y="-413.9" font-family="Times Roman,serif" font-size="14.00">id :integer</text>
<text text-anchor="start" x="614" y="-396.9" font-family="Times Roman,serif" font-size="14.00">invited_by_id :integer</text>
<text text-anchor="start" x="614" y="-379.9" font-family="Times Roman,serif" font-size="14.00">user_id :integer</text>
<text text-anchor="start" x="614" y="-362.9" font-family="Times Roman,serif" font-size="14.00">challenge_id :integer</text>
<text text-anchor="start" x="614" y="-345.9" font-family="Times Roman,serif" font-size="14.00">created_at :datetime</text>
<text text-anchor="start" x="614" y="-328.9" font-family="Times Roman,serif" font-size="14.00">updated_at :datetime</text>
</g>
<!-- User&#45;&gt;Invitation -->
<g id="edge14" class="edge"><title>User&#45;&gt;Invitation</title>
<path fill="none" stroke="#5093b9" d="M595.907,-754.186C591.603,-695.631 591.98,-629.282 605,-570 612.95,-533.805 628.821,-496.23 644.647,-464.686"/>
<ellipse fill="none" stroke="#5093b9" cx="596.234" cy="-758.407" rx="4" ry="4"/>
<polygon fill="#5093b9" stroke="#5093b9" points="644.776,-464.434 653.332,-457.576 647.05,-459.981 649.325,-455.529 649.325,-455.529 649.325,-455.529 647.05,-459.981 645.317,-453.482 644.776,-464.434 644.776,-464.434"/>
</g>
<!-- Challenge -->
<g id="node10" class="node"><title>Challenge</title>
<polyline fill="none" stroke="black" points="625.5,-571 766.5,-571 "/>
<path fill="none" stroke="black" d="M766.5,-571C772.5,-571 778.5,-577 778.5,-583"/>
<polyline fill="none" stroke="black" points="778.5,-583 778.5,-711 "/>
<path fill="none" stroke="black" d="M778.5,-711C778.5,-717 772.5,-723 766.5,-723"/>
<polyline fill="none" stroke="black" points="766.5,-723 625.5,-723 "/>
<path fill="none" stroke="black" d="M625.5,-723C619.5,-723 613.5,-717 613.5,-711"/>
<polyline fill="none" stroke="black" points="613.5,-711 613.5,-583 "/>
<path fill="none" stroke="black" d="M613.5,-583C613.5,-577 619.5,-571 625.5,-571"/>
<text text-anchor="middle" x="696" y="-706.4" font-family="Times Roman,serif" font-size="14.00">Challenge</text>
<polyline fill="none" stroke="black" points="613.5,-698 778.5,-698 "/>
<text text-anchor="start" x="621.5" y="-681.4" font-family="Times Roman,serif" font-size="14.00">id :integer</text>
<text text-anchor="start" x="621.5" y="-664.4" font-family="Times Roman,serif" font-size="14.00">route_id :integer</text>
<text text-anchor="start" x="621.5" y="-647.4" font-family="Times Roman,serif" font-size="14.00">finish_date :date</text>
<text text-anchor="start" x="621.5" y="-630.4" font-family="Times Roman,serif" font-size="14.00">created_at :datetime</text>
<text text-anchor="start" x="621.5" y="-613.4" font-family="Times Roman,serif" font-size="14.00">updated_at :datetime</text>
<text text-anchor="start" x="621.5" y="-596.4" font-family="Times Roman,serif" font-size="14.00">start_point :integer</text>
<text text-anchor="start" x="621.5" y="-579.4" font-family="Times Roman,serif" font-size="14.00">finish_point :integer</text>
</g>
<!-- User&#45;&gt;Challenge -->
<g id="edge12" class="edge"><title>User&#45;&gt;Challenge</title>
<path fill="none" stroke="#a0d1cc" d="M666.098,-752.444C667.982,-745.8 669.838,-739.255 671.647,-732.877"/>
<polygon fill="#a0d1cc" stroke="#a0d1cc" points="666.056,-752.591 658.999,-760.984 664.692,-757.401 663.328,-762.211 663.328,-762.211 663.328,-762.211 664.692,-757.401 667.657,-763.439 666.056,-752.591 666.056,-752.591"/>
<polygon fill="#a0d1cc" stroke="#a0d1cc" points="671.719,-732.624 678.776,-724.231 673.083,-727.813 674.447,-723.003 674.447,-723.003 674.447,-723.003 673.083,-727.813 670.118,-721.775 671.719,-732.624 671.719,-732.624"/>
</g>
<!-- EngineDisplacement -->
<g id="node6" class="node"><title>EngineDisplacement</title>
<polyline fill="none" stroke="black" points="167.5,-613.5 300.5,-613.5 "/>
<path fill="none" stroke="black" d="M300.5,-613.5C306.5,-613.5 312.5,-619.5 312.5,-625.5"/>
<polyline fill="none" stroke="black" points="312.5,-625.5 312.5,-668.5 "/>
<path fill="none" stroke="black" d="M312.5,-668.5C312.5,-674.5 306.5,-680.5 300.5,-680.5"/>
<polyline fill="none" stroke="black" points="300.5,-680.5 167.5,-680.5 "/>
<path fill="none" stroke="black" d="M167.5,-680.5C161.5,-680.5 155.5,-674.5 155.5,-668.5"/>
<polyline fill="none" stroke="black" points="155.5,-668.5 155.5,-625.5 "/>
<path fill="none" stroke="black" d="M155.5,-625.5C155.5,-619.5 161.5,-613.5 167.5,-613.5"/>
<text text-anchor="middle" x="234" y="-663.9" font-family="Times Roman,serif" font-size="14.00">EngineDisplacement</text>
<polyline fill="none" stroke="black" points="155.5,-655.5 312.5,-655.5 "/>
<text text-anchor="start" x="163.5" y="-638.9" font-family="Times Roman,serif" font-size="14.00">id :integer</text>
<text text-anchor="start" x="163.5" y="-621.9" font-family="Times Roman,serif" font-size="14.00">disp :string</text>
</g>
<!-- EngineDisplacement&#45;&gt;FuelConsumption -->
<g id="edge20" class="edge"><title>EngineDisplacement&#45;&gt;FuelConsumption</title>
<path fill="none" stroke="#fa1842" d="M215.832,-606.083C200.097,-570.645 176.815,-518.21 157.024,-473.637"/>
<ellipse fill="none" stroke="#fa1842" cx="217.46" cy="-609.75" rx="4.00002" ry="4.00002"/>
<polygon fill="#fa1842" stroke="#fa1842" points="156.916,-473.394 156.971,-462.428 154.887,-468.824 152.858,-464.254 152.858,-464.254 152.858,-464.254 154.887,-468.824 148.745,-466.08 156.916,-473.394 156.916,-473.394"/>
</g>
<!-- EngineDisplacement&#45;&gt;Trip -->
<g id="edge18" class="edge"><title>EngineDisplacement&#45;&gt;Trip</title>
<path fill="none" stroke="#c1514e" d="M270.062,-607.256C291.023,-584.154 318.788,-553.552 346.905,-522.564"/>
<ellipse fill="none" stroke="#c1514e" cx="267.169" cy="-610.443" rx="4.00002" ry="4.00002"/>
<polygon fill="#c1514e" stroke="#c1514e" points="346.952,-522.513 357.004,-518.131 350.311,-518.81 353.671,-515.107 353.671,-515.107 353.671,-515.107 350.311,-518.81 350.339,-512.083 346.952,-522.513 346.952,-522.513"/>
</g>
<!-- EngineDisplacement&#45;&gt;Users -->
<g id="edge16" class="edge"><title>EngineDisplacement&#45;&gt;Users</title>
<path fill="none" stroke="#fc62cb" d="M243.667,-605.271C256.175,-551.28 277.59,-458.837 287.986,-413.961"/>
<ellipse fill="none" stroke="#fc62cb" cx="242.685" cy="-609.509" rx="4.00001" ry="4.00001"/>
<ellipse fill="#fc62cb" stroke="#fc62cb" cx="288.891" cy="-410.052" rx="4.00001" ry="4.00001"/>
<text text-anchor="middle" x="276.5" y="-538.9" font-family="Times Roman,serif" font-size="14.00">users</text>
</g>
<!-- CheckPoint -->
<g id="node8" class="node"><title>CheckPoint</title>
<polyline fill="none" stroke="black" points="392,-1 546,-1 "/>
<path fill="none" stroke="black" d="M546,-1C552,-1 558,-7 558,-13"/>
<polyline fill="none" stroke="black" points="558,-13 558,-209 "/>
<path fill="none" stroke="black" d="M558,-209C558,-215 552,-221 546,-221"/>
<polyline fill="none" stroke="black" points="546,-221 392,-221 "/>
<path fill="none" stroke="black" d="M392,-221C386,-221 380,-215 380,-209"/>
<polyline fill="none" stroke="black" points="380,-209 380,-13 "/>
<path fill="none" stroke="black" d="M380,-13C380,-7 386,-1 392,-1"/>
<text text-anchor="middle" x="469" y="-204.4" font-family="Times Roman,serif" font-size="14.00">CheckPoint</text>
<polyline fill="none" stroke="black" points="380,-196 558,-196 "/>
<text text-anchor="start" x="388" y="-179.4" font-family="Times Roman,serif" font-size="14.00">id :integer</text>
<text text-anchor="start" x="388" y="-162.4" font-family="Times Roman,serif" font-size="14.00">longitude :decimal</text>
<text text-anchor="start" x="388" y="-145.4" font-family="Times Roman,serif" font-size="14.00">latitude :decimal</text>
<text text-anchor="start" x="388" y="-128.4" font-family="Times Roman,serif" font-size="14.00">trip_id :integer</text>
<text text-anchor="start" x="388" y="-111.4" font-family="Times Roman,serif" font-size="14.00">created_at :datetime</text>
<text text-anchor="start" x="388" y="-94.4" font-family="Times Roman,serif" font-size="14.00">updated_at :datetime</text>
<text text-anchor="start" x="388" y="-77.4" font-family="Times Roman,serif" font-size="14.00">rpm :integer</text>
<text text-anchor="start" x="388" y="-60.4" font-family="Times Roman,serif" font-size="14.00">speed :integer</text>
<text text-anchor="start" x="388" y="-43.4" font-family="Times Roman,serif" font-size="14.00">fuel_consumption :float</text>
<text text-anchor="start" x="388" y="-26.4" font-family="Times Roman,serif" font-size="14.00">gear :integer</text>
<text text-anchor="start" x="388" y="-9.4" font-family="Times Roman,serif" font-size="14.00">recorded_at :float</text>
</g>
<!-- Trip&#45;&gt;CheckPoint -->
<g id="edge22" class="edge"><title>Trip&#45;&gt;CheckPoint</title>
<path fill="none" stroke="#0af309" d="M469,-252.777C469,-245.676 469,-238.563 469,-231.514"/>
<ellipse fill="none" stroke="#0af309" cx="469" cy="-256.85" rx="4" ry="4"/>
<polygon fill="#0af309" stroke="#0af309" points="469,-231.239 473.5,-221.239 469,-226.239 469,-221.239 469,-221.239 469,-221.239 469,-226.239 464.5,-221.239 469,-231.239 469,-231.239"/>
</g>
<!-- Challenge&#45;&gt;ChallengesUser -->
<g id="edge26" class="edge"><title>Challenge&#45;&gt;ChallengesUser</title>
<path fill="none" stroke="#c1739f" d="M751.785,-563.964C781.746,-519.366 817.402,-466.293 841.663,-430.18"/>
<ellipse fill="none" stroke="#c1739f" cx="749.495" cy="-567.372" rx="4.00002" ry="4.00002"/>
<polygon fill="#c1739f" stroke="#c1739f" points="841.693,-430.136 851.005,-424.344 844.481,-425.985 847.269,-421.835 847.269,-421.835 847.269,-421.835 844.481,-425.985 843.534,-419.325 841.693,-430.136 841.693,-430.136"/>
</g>
<!-- Challenge&#45;&gt;Trip -->
<g id="edge24" class="edge"><title>Challenge&#45;&gt;Trip</title>
<path fill="none" stroke="#b217d9" d="M623.687,-564.493C612.065,-551.233 599.777,-537.212 587.411,-523.103"/>
<ellipse fill="none" stroke="#b217d9" cx="626.484" cy="-567.684" rx="4.00002" ry="4.00002"/>
<polygon fill="#b217d9" stroke="#b217d9" points="587.127,-522.78 583.92,-512.293 583.832,-519.019 580.536,-515.259 580.536,-515.259 580.536,-515.259 583.832,-519.019 577.152,-518.225 587.127,-522.78 587.127,-522.78"/>
</g>
<!-- Challenge&#45;&gt;Invitation -->
<g id="edge28" class="edge"><title>Challenge&#45;&gt;Invitation</title>
<path fill="none" stroke="#f8b413" d="M693.716,-562.48C692.876,-531.426 691.931,-496.431 691.108,-465.979"/>
<ellipse fill="none" stroke="#f8b413" cx="693.83" cy="-566.694" rx="4" ry="4"/>
<polygon fill="#f8b413" stroke="#f8b413" points="691.104,-465.834 695.332,-455.716 690.969,-460.836 690.833,-455.838 690.833,-455.838 690.833,-455.838 690.969,-460.836 686.335,-455.959 691.104,-465.834 691.104,-465.834"/>
</g>
</g>
</svg>
