<?xml version="1.0" encoding="UTF-8" standalone="no"?>
<!DOCTYPE svg PUBLIC "-//W3C//DTD SVG 1.1//EN"
 "http://www.w3.org/Graphics/SVG/1.1/DTD/svg11.dtd">
<!-- Generated by graphviz version 2.26.3 (20100126.1600)
 -->
<!-- Title: models_diagram Pages: 1 -->
<svg width="700pt" height="334pt"
 viewBox="0.00 0.00 700.00 334.00" xmlns="http://www.w3.org/2000/svg" xmlns:xlink="http://www.w3.org/1999/xlink">
<g id="graph1" class="graph" transform="scale(1 1) rotate(0) translate(4 330)">
<title>models_diagram</title>
<polygon fill="white" stroke="white" points="-4,5 -4,-330 697,-330 697,5 -4,5"/>
<!-- _diagram_info -->
<g id="node1" class="node"><title>_diagram_info</title>
<text text-anchor="start" x="169" y="-310.3" font-family="Times Roman,serif" font-size="13.00">Models diagram</text>
<text text-anchor="start" x="169" y="-294.3" font-family="Times Roman,serif" font-size="13.00">Date: Jun 14 2015 &#45; 14:26</text>
<text text-anchor="start" x="169" y="-278.3" font-family="Times Roman,serif" font-size="13.00">Migration version: 20150607144430</text>
<text text-anchor="start" x="169" y="-262.3" font-family="Times Roman,serif" font-size="13.00">Generated by RailRoady 1.3.0</text>
<text text-anchor="start" x="169" y="-246.3" font-family="Times Roman,serif" font-size="13.00">http://railroady.prestonlee.com</text>
</g>
<!-- EngineType -->
<g id="node2" class="node"><title>EngineType</title>
<ellipse fill="none" stroke="black" cx="302" cy="-182" rx="66.0138" ry="18"/>
<text text-anchor="middle" x="302" y="-177.9" font-family="Times Roman,serif" font-size="14.00">EngineType</text>
</g>
<!-- FuelConsumption -->
<g id="node3" class="node"><title>FuelConsumption</title>
<ellipse fill="none" stroke="black" cx="110" cy="-92" rx="94.004" ry="18"/>
<text text-anchor="middle" x="110" y="-87.9" font-family="Times Roman,serif" font-size="14.00">FuelConsumption</text>
</g>
<!-- EngineType&#45;&gt;FuelConsumption -->
<g id="edge6" class="edge"><title>EngineType&#45;&gt;FuelConsumption</title>
<path fill="none" stroke="#aaa82d" d="M261.036,-162.798C229.843,-148.177 186.945,-128.068 154.836,-113.017"/>
<ellipse fill="none" stroke="#aaa82d" cx="264.934" cy="-164.625" rx="4.00002" ry="4.00002"/>
<polygon fill="#aaa82d" stroke="#aaa82d" points="154.718,-112.962 147.574,-104.643 150.191,-110.84 145.664,-108.717 145.664,-108.717 145.664,-108.717 150.191,-110.84 143.754,-112.792 154.718,-112.962 154.718,-112.962"/>
</g>
<!-- Trip -->
<g id="node7" class="node"><title>Trip</title>
<ellipse fill="none" stroke="black" cx="344" cy="-92" rx="27.9903" ry="18"/>
<text text-anchor="middle" x="344" y="-87.9" font-family="Times Roman,serif" font-size="14.00">Trip</text>
</g>
<!-- EngineType&#45;&gt;Trip -->
<g id="edge4" class="edge"><title>EngineType&#45;&gt;Trip</title>
<path fill="none" stroke="#f4e11d" d="M316.523,-156.755C318.433,-153.18 320.312,-149.522 322,-146 326.133,-137.378 330.211,-127.767 333.712,-119.071"/>
<ellipse fill="none" stroke="#f4e11d" cx="314.528" cy="-160.401" rx="4.00002" ry="4.00002"/>
<polygon fill="#f4e11d" stroke="#f4e11d" points="333.722,-119.045 341.578,-111.394 335.557,-114.394 337.392,-109.743 337.392,-109.743 337.392,-109.743 335.557,-114.394 333.206,-108.091 333.722,-119.045 333.722,-119.045"/>
</g>
<!-- Users -->
<g id="node12" class="node"><title>Users</title>
<ellipse fill="none" stroke="black" cx="260" cy="-92" rx="38.2185" ry="18"/>
<text text-anchor="middle" x="260" y="-87.9" font-family="Times Roman,serif" font-size="14.00">Users</text>
</g>
<!-- EngineType&#45;&gt;Users -->
<g id="edge2" class="edge"><title>EngineType&#45;&gt;Users</title>
<path fill="none" stroke="#736a75" d="M290.069,-156.798C288.364,-153.176 286.634,-149.495 285,-146 280.624,-136.642 275.852,-126.355 271.661,-117.293"/>
<ellipse fill="none" stroke="#736a75" cx="291.792" cy="-160.45" rx="4.00002" ry="4.00002"/>
<ellipse fill="#736a75" stroke="#736a75" cx="269.977" cy="-113.647" rx="4.00002" ry="4.00002"/>
<text text-anchor="middle" x="303.5" y="-132.9" font-family="Times Roman,serif" font-size="14.00">users</text>
</g>
<!-- User -->
<g id="node4" class="node"><title>User</title>
<ellipse fill="none" stroke="black" cx="462" cy="-282" rx="32.8565" ry="18"/>
<text text-anchor="middle" x="462" y="-277.9" font-family="Times Roman,serif" font-size="14.00">User</text>
</g>
<!-- ChallengesUser -->
<g id="node5" class="node"><title>ChallengesUser</title>
<ellipse fill="none" stroke="black" cx="607" cy="-92" rx="84.9707" ry="18"/>
<text text-anchor="middle" x="607" y="-87.9" font-family="Times Roman,serif" font-size="14.00">ChallengesUser</text>
</g>
<!-- User&#45;&gt;ChallengesUser -->
<g id="edge10" class="edge"><title>User&#45;&gt;ChallengesUser</title>
<path fill="none" stroke="#1bf000" d="M497.315,-268.767C526.715,-255.837 567.171,-233.223 589,-200 604.589,-176.274 608.115,-143.474 608.348,-120.262"/>
<ellipse fill="none" stroke="#1bf000" cx="493.4" cy="-270.434" rx="4.00002" ry="4.00002"/>
<polygon fill="#1bf000" stroke="#1bf000" points="608.345,-120.029 612.745,-109.985 608.295,-115.029 608.245,-110.03 608.245,-110.03 608.245,-110.03 608.295,-115.029 603.745,-110.075 608.345,-120.029 608.345,-120.029"/>
</g>
<!-- User&#45;&gt;Trip -->
<g id="edge8" class="edge"><title>User&#45;&gt;Trip</title>
<path fill="none" stroke="#793fbe" d="M447.068,-257.957C424.689,-221.923 382.641,-154.219 359.778,-117.405"/>
<ellipse fill="none" stroke="#793fbe" cx="449.21" cy="-261.406" rx="4.00002" ry="4.00002"/>
<polygon fill="#793fbe" stroke="#793fbe" points="359.678,-117.244 358.225,-106.374 357.04,-112.996 354.402,-108.749 354.402,-108.749 354.402,-108.749 357.04,-112.996 350.579,-111.123 359.678,-117.244 359.678,-117.244"/>
</g>
<!-- Invitation -->
<g id="node9" class="node"><title>Invitation</title>
<ellipse fill="none" stroke="black" cx="447" cy="-92" rx="57.1737" ry="18"/>
<text text-anchor="middle" x="447" y="-87.9" font-family="Times Roman,serif" font-size="14.00">Invitation</text>
</g>
<!-- User&#45;&gt;Invitation -->
<g id="edge14" class="edge"><title>User&#45;&gt;Invitation</title>
<path fill="none" stroke="#5ae975" d="M458.717,-255.422C456.827,-239.391 454.532,-218.546 453,-200 450.778,-173.103 449.16,-142.367 448.168,-120.58"/>
<ellipse fill="none" stroke="#5ae975" cx="459.242" cy="-259.817" rx="4.00001" ry="4.00001"/>
<polygon fill="#5ae975" stroke="#5ae975" points="448.158,-120.356 452.215,-110.168 447.939,-115.361 447.719,-110.366 447.719,-110.366 447.719,-110.366 447.939,-115.361 443.223,-110.563 448.158,-120.356 448.158,-120.356"/>
</g>
<!-- Challenge -->
<g id="node10" class="node"><title>Challenge</title>
<ellipse fill="none" stroke="black" cx="521" cy="-182" rx="59.065" ry="18"/>
<text text-anchor="middle" x="521" y="-177.9" font-family="Times Roman,serif" font-size="14.00">Challenge</text>
</g>
<!-- User&#45;&gt;Challenge -->
<g id="edge12" class="edge"><title>User&#45;&gt;Challenge</title>
<path fill="none" stroke="#b50f35" d="M477.397,-255.904C486.007,-241.311 496.713,-223.165 505.361,-208.506"/>
<polygon fill="#b50f35" stroke="#b50f35" points="477.359,-255.969 468.401,-262.295 474.818,-260.275 472.277,-264.581 472.277,-264.581 472.277,-264.581 474.818,-260.275 476.153,-266.868 477.359,-255.969 477.359,-255.969"/>
<polygon fill="#b50f35" stroke="#b50f35" points="505.362,-208.505 514.319,-202.179 507.903,-204.199 510.443,-199.892 510.443,-199.892 510.443,-199.892 507.903,-204.199 506.568,-197.606 505.362,-208.505 505.362,-208.505"/>
</g>
<!-- EngineDisplacement -->
<g id="node6" class="node"><title>EngineDisplacement</title>
<ellipse fill="none" stroke="black" cx="109" cy="-182" rx="109.097" ry="18"/>
<text text-anchor="middle" x="109" y="-177.9" font-family="Times Roman,serif" font-size="14.00">EngineDisplacement</text>
</g>
<!-- EngineDisplacement&#45;&gt;FuelConsumption -->
<g id="edge20" class="edge"><title>EngineDisplacement&#45;&gt;FuelConsumption</title>
<path fill="none" stroke="#b19bb7" d="M109.293,-155.615C109.416,-144.548 109.559,-131.658 109.685,-120.385"/>
<ellipse fill="none" stroke="#b19bb7" cx="109.247" cy="-159.787" rx="4" ry="4"/>
<polygon fill="#b19bb7" stroke="#b19bb7" points="109.687,-120.185 114.298,-110.236 109.742,-115.185 109.798,-110.186 109.798,-110.186 109.798,-110.186 109.742,-115.185 105.298,-110.136 109.687,-120.185 109.687,-120.185"/>
</g>
<!-- EngineDisplacement&#45;&gt;Trip -->
<g id="edge18" class="edge"><title>EngineDisplacement&#45;&gt;Trip</title>
<path fill="none" stroke="#ca6d09" d="M167.624,-163.418C184.004,-158.015 201.761,-151.959 218,-146 258.057,-131.301 268.015,-127.343 307,-110 308.811,-109.194 310.664,-108.352 312.529,-107.49"/>
<ellipse fill="none" stroke="#ca6d09" cx="163.507" cy="-164.768" rx="4.00001" ry="4.00001"/>
<polygon fill="#ca6d09" stroke="#ca6d09" points="312.771,-107.375 323.735,-107.167 317.291,-105.238 321.811,-103.1 321.811,-103.1 321.811,-103.1 317.291,-105.238 319.887,-99.0316 312.771,-107.375 312.771,-107.375"/>
</g>
<!-- EngineDisplacement&#45;&gt;Users -->
<g id="edge16" class="edge"><title>EngineDisplacement&#45;&gt;Users</title>
<path fill="none" stroke="#333efb" d="M136.706,-159.008C149.697,-148.815 165.667,-137.099 181,-128 194.343,-120.083 209.728,-112.712 223.357,-106.728"/>
<ellipse fill="none" stroke="#333efb" cx="133.334" cy="-161.688" rx="4.00002" ry="4.00002"/>
<ellipse fill="#333efb" stroke="#333efb" cx="227.05" cy="-105.136" rx="4.00002" ry="4.00002"/>
<text text-anchor="middle" x="199.5" y="-132.9" font-family="Times Roman,serif" font-size="14.00">users</text>
</g>
<!-- CheckPoint -->
<g id="node8" class="node"><title>CheckPoint</title>
<ellipse fill="none" stroke="black" cx="344" cy="-18" rx="64.8203" ry="18"/>
<text text-anchor="middle" x="344" y="-13.9" font-family="Times Roman,serif" font-size="14.00">CheckPoint</text>
</g>
<!-- Trip&#45;&gt;CheckPoint -->
<g id="edge22" class="edge"><title>Trip&#45;&gt;CheckPoint</title>
<path fill="none" stroke="#a12eda" d="M344,-65.4865C344,-59.2389 344,-52.5565 344,-46.2361"/>
<ellipse fill="none" stroke="#a12eda" cx="344" cy="-69.7079" rx="4" ry="4"/>
<polygon fill="#a12eda" stroke="#a12eda" points="344,-46.0817 348.5,-36.0817 344,-41.0817 344,-36.0817 344,-36.0817 344,-36.0817 344,-41.0817 339.5,-36.0818 344,-46.0817 344,-46.0817"/>
</g>
<!-- Challenge&#45;&gt;ChallengesUser -->
<g id="edge26" class="edge"><title>Challenge&#45;&gt;ChallengesUser</title>
<path fill="none" stroke="#64afb7" d="M543.134,-158.836C555.304,-146.1 570.418,-130.284 582.887,-117.235"/>
<ellipse fill="none" stroke="#64afb7" cx="540.345" cy="-161.755" rx="4.00002" ry="4.00002"/>
<polygon fill="#64afb7" stroke="#64afb7" points="582.972,-117.146 593.134,-113.025 586.426,-113.531 589.881,-109.916 589.881,-109.916 589.881,-109.916 586.426,-113.531 586.627,-106.807 582.972,-117.146 582.972,-117.146"/>
</g>
<!-- Challenge&#45;&gt;Trip -->
<g id="edge24" class="edge"><title>Challenge&#45;&gt;Trip</title>
<path fill="none" stroke="#e36bb3" d="M483.244,-162.802C451.133,-146.474 405.561,-123.302 375.411,-107.972"/>
<ellipse fill="none" stroke="#e36bb3" cx="487.007" cy="-164.715" rx="4.00002" ry="4.00002"/>
<polygon fill="#e36bb3" stroke="#e36bb3" points="375.114,-107.821 368.24,-99.277 370.657,-105.555 366.2,-103.288 366.2,-103.288 366.2,-103.288 370.657,-105.555 364.161,-107.299 375.114,-107.821 375.114,-107.821"/>
</g>
<!-- Challenge&#45;&gt;Invitation -->
<g id="edge28" class="edge"><title>Challenge&#45;&gt;Invitation</title>
<path fill="none" stroke="#441e66" d="M508.852,-156.651C503.71,-147.176 497.232,-136.63 490,-128 486.326,-123.616 482.074,-119.348 477.702,-115.374"/>
<ellipse fill="none" stroke="#441e66" cx="510.823" cy="-160.419" rx="4.00002" ry="4.00002"/>
<polygon fill="#441e66" stroke="#441e66" points="477.383,-115.099 472.739,-105.165 473.593,-111.837 469.803,-108.576 469.803,-108.576 469.803,-108.576 473.593,-111.837 466.868,-111.987 477.383,-115.099 477.383,-115.099"/>
</g>
</g>
</svg>
